# xmcd CD database file
#
# Track frame offsets:
#	150
#	22565
#	45458
#	70507
#	95423
#	112929
#	130008
#	145304
#	170310
#	188986
#	226863
#	241314
#	255085
#	278998
#	293624
#
# Disc length: 4137 seconds
#
# Revision: 0
# Processed by: cddbd v1.5.2PL0 Copyright (c) Steve Scherf et al.
# Submitted via: CDex 1.70beta2
#
DISCID=b610270f
DTITLE=Gerry Mulligan Quartet - Live in California disc 2
DYEAR=1954
DGENRE=Jazz
TTITLE0=Gerry Mulligan Quartet - Blues Going Up
TTITLE1=Gerry Mulligan Quartet - Little Girl Blue
TTITLE2=Gerry Mulligan Quartet - Piano Blues
TTITLE3=Gerry Mulligan Quartet - Yardbird Suite
TTITLE4=Gerry Mulligan Quartet - Blues For Tiny
TTITLE5=Gerry Mulligan Quartet - Soft Shoe
TTITLE6=Gerry Mulligan Quartet - Makin' Whoopee
TTITLE7=Gerry Mulligan Quartet - Darn That Dream
TTITLE8=Gerry Mulligan Quartet - Ontet
TTITLE9=Gerry Mulligan Quartet - Bark For Barksdale
TTITLE10=Gerry Mulligan Quartet - Makin' Whoopee
TTITLE11=Gerry Mulligan Quartet - Nights At The Turntable
TTITLE12=Gerry Mulligan Quartet - Blues For Tiny
TTITLE13=Gerry Mulligan Quartet - Frenesi
TTITLE14=Gerry Mulligan Quartet - Limelite
EXTD=YEAR: 1954
EXTT0=
EXTT1=
EXTT2=
EXTT3=
EXTT4=
EXTT5=
EXTT6=
EXTT7=
EXTT8=
EXTT9=
EXTT10=
EXTT11=
EXTT12=
EXTT13=
EXTT14=
PLAYORDER=
